<?xml version="1.0" encoding="UTF-8"?>
<!DOCTYPE svg PUBLIC "-//W3C//DTD SVG 1.1//EN" "http://www.w3.org/Graphics/SVG/1.1/DTD/svg11.dtd">
<svg xmlns="http://www.w3.org/2000/svg" version="1.1" width="672px" height="202px" style="shape-rendering:geometricPrecision; text-rendering:geometricPrecision; image-rendering:optimizeQuality; fill-rule:evenodd; clip-rule:evenodd" xmlns:xlink="http://www.w3.org/1999/xlink">
<g><path style="opacity:0.861" fill="#4b1ffd" d="M 93.5,-0.5 C 94.8333,-0.5 96.1667,-0.5 97.5,-0.5C 98.4865,18.0903 98.8198,36.757 98.5,55.5C 96.8333,55.5 95.1667,55.5 93.5,55.5C 93.8016,58.0593 93.4682,60.3926 92.5,62.5C 92.2845,58.9408 92.6178,55.4408 93.5,52C 92.6959,39.8664 92.1959,27.6998 92,15.5C 87.059,25.7181 81.8923,35.7181 76.5,45.5C 75.0048,45.0113 73.6715,44.3446 72.5,43.5C 77.4884,32.8551 82.4884,22.1884 87.5,11.5C 87.1667,11.1667 86.8333,10.8333 86.5,10.5C 71.816,19.5269 57.1493,28.5269 42.5,37.5C 39.5,37.5 36.5,37.5 33.5,37.5C 53.2328,24.4383 73.2328,11.7716 93.5,-0.5 Z"/></g>
<g><path style="opacity:0.81" fill="#000000" d="M 114.5,-0.5 C 115.833,-0.5 117.167,-0.5 118.5,-0.5C 144.935,16.2255 171.602,32.7255 198.5,49C 200.049,50.214 201.215,51.714 202,53.5C 206.069,84.1226 209.403,114.789 212,145.5C 201.339,164.313 190.505,182.98 179.5,201.5C 157.833,201.5 136.167,201.5 114.5,201.5C 113.167,134.167 113.167,66.8333 114.5,-0.5 Z M 123.5,9.5 C 147.35,24.5047 171.35,39.338 195.5,54C 185,66.5 174.5,79 164,91.5C 150.028,64.4299 136.528,37.0966 123.5,9.5 Z M 118.5,13.5 C 132.311,41.2878 146.311,69.1212 160.5,97C 146.477,126.731 132.644,156.564 119,186.5C 118.5,128.834 118.333,71.1676 118.5,13.5 Z M 196.5,60.5 C 200.57,85.2806 203.736,110.281 206,135.5C 192.986,122.653 180.153,109.653 167.5,96.5C 177.19,84.481 186.857,72.481 196.5,60.5 Z M 123.5,191.5 C 136.507,161.327 150.007,131.327 164,101.5C 177.833,115.333 191.667,129.167 205.5,143C 178.304,159.43 150.971,175.597 123.5,191.5 Z M 199.5,152.5 C 200.239,152.369 200.906,152.536 201.5,153C 193.293,167.249 184.959,181.416 176.5,195.5C 160.177,196.666 143.844,196.833 127.5,196C 151.73,181.726 175.73,167.226 199.5,152.5 Z"/></g>
<g><path style="opacity:0.926" fill="#ba00ee" d="M 409.5,41.5 C 420.238,40.4014 424.405,45.068 422,55.5C 415.667,62.1667 409.333,62.1667 403,55.5C 400.746,48.5755 402.913,43.9089 409.5,41.5 Z"/></g>
<g><path style="opacity:0.937" fill="#000000" d="M 332.5,46.5 C 338.167,46.5 343.833,46.5 349.5,46.5C 349.334,55.1731 349.5,63.8397 350,72.5C 354.849,68.3274 360.515,66.3274 367,66.5C 380.098,66.2652 387.765,72.5985 390,85.5C 390.5,98.1623 390.667,110.829 390.5,123.5C 384.833,123.5 379.167,123.5 373.5,123.5C 373.667,112.495 373.5,101.495 373,90.5C 372.49,84.3219 369.157,81.3219 363,81.5C 357.34,81.048 353.34,83.3814 351,88.5C 349.613,100.113 349.113,111.779 349.5,123.5C 343.833,123.5 338.167,123.5 332.5,123.5C 332.5,97.8333 332.5,72.1667 332.5,46.5 Z"/></g>
<g><path style="opacity:0.934" fill="#000000" d="M 566.5,120.5 C 566.5,121.5 566.5,122.5 566.5,123.5C 560.158,123.666 553.825,123.5 547.5,123C 541.953,116.074 536.286,109.241 530.5,102.5C 528.183,104.316 526.016,106.316 524,108.5C 523.501,113.489 523.334,118.489 523.5,123.5C 517.833,123.5 512.167,123.5 506.5,123.5C 506.5,97.8333 506.5,72.1667 506.5,46.5C 512.167,46.5 517.833,46.5 523.5,46.5C 523.167,60.1829 523.501,73.8496 524.5,87.5C 531.35,80.8163 538.35,74.3163 545.5,68C 552.192,67.1691 558.858,67.3358 565.5,68.5C 558.167,76.1667 550.833,83.8333 543.5,91.5C 550.945,101.418 558.612,111.085 566.5,120.5 Z"/></g>
<g><path style="opacity:0.968" fill="#000000" d="M 262.5,50.5 C 283.5,50.5 304.5,50.5 325.5,50.5C 325.5,55.1667 325.5,59.8333 325.5,64.5C 317.833,64.5 310.167,64.5 302.5,64.5C 302.5,84.1667 302.5,103.833 302.5,123.5C 296.833,123.5 291.167,123.5 285.5,123.5C 285.5,103.833 285.5,84.1667 285.5,64.5C 277.833,64.5 270.167,64.5 262.5,64.5C 262.5,59.8333 262.5,55.1667 262.5,50.5 Z"/></g>
<g><path style="opacity:0.95" fill="#b900ee" d="M 566.5,123.5 C 566.5,122.5 566.5,121.5 566.5,120.5C 577.35,97.4597 587.684,74.1264 597.5,50.5C 603.758,50.1903 609.924,50.5236 616,51.5C 626.5,75.1667 637,98.8333 647.5,122.5C 641.528,123.664 635.528,123.83 629.5,123C 627.167,118 624.833,113 622.5,108C 611.833,107.333 601.167,107.333 590.5,108C 587.808,112.911 585.808,118.077 584.5,123.5C 578.5,123.5 572.5,123.5 566.5,123.5 Z M 606.5,69.5 C 610.262,77.5326 613.929,85.6993 617.5,94C 610.508,94.4996 603.508,94.6663 596.5,94.5C 599.44,86.0143 602.773,77.681 606.5,69.5 Z"/></g>
<g><path style="opacity:0.968" fill="#b900ee" d="M 671.5,50.5 C 671.5,74.8333 671.5,99.1667 671.5,123.5C 665.833,123.5 660.167,123.5 654.5,123.5C 654.5,99.1667 654.5,74.8333 654.5,50.5C 660.167,50.5 665.833,50.5 671.5,50.5 Z"/></g>
<g><path style="opacity:0.9" fill="#6d15f8" d="M 33.5,37.5 C 36.5,37.5 39.5,37.5 42.5,37.5C 34.0071,43.1369 25.3404,48.6369 16.5,54C 25.8657,64.5873 34.8657,75.4207 43.5,86.5C 41.2646,86.2053 39.2646,86.5386 37.5,87.5C 30.0184,78.5707 22.5184,69.5707 15,60.5C 13.5815,66.8996 12.4148,73.233 11.5,79.5C 9.97237,78.6908 8.3057,78.0241 6.5,77.5C 7.66937,68.8127 9.00271,60.146 10.5,51.5C 17.7226,46.0576 25.3893,41.3909 33.5,37.5 Z"/></g>
<g><path style="opacity:0.954" fill="#000000" d="M 463.5,66.5 C 478.404,64.2765 487.904,70.2765 492,84.5C 492.5,97.4957 492.667,110.496 492.5,123.5C 486.833,123.5 481.167,123.5 475.5,123.5C 475.667,111.829 475.5,100.162 475,88.5C 473.466,83.3108 469.966,80.9774 464.5,81.5C 458.632,81.1966 454.798,83.8633 453,89.5C 451.644,100.785 451.144,112.119 451.5,123.5C 446.167,123.5 440.833,123.5 435.5,123.5C 435.5,104.833 435.5,86.1667 435.5,67.5C 440.833,67.5 446.167,67.5 451.5,67.5C 451.34,69.1992 451.506,70.8659 452,72.5C 455.372,69.4442 459.206,67.4442 463.5,66.5 Z"/></g>
<g><path style="opacity:0.936" fill="#000000" d="M 404.5,67.5 C 410.167,67.5 415.833,67.5 421.5,67.5C 421.5,86.1667 421.5,104.833 421.5,123.5C 415.833,123.5 410.167,123.5 404.5,123.5C 404.5,104.833 404.5,86.1667 404.5,67.5 Z"/></g>
<g><path style="opacity:0.95" fill="#7314f8" d="M 72.5,43.5 C 73.6715,44.3446 75.0048,45.0113 76.5,45.5C 70.0698,59.3588 63.4032,73.0255 56.5,86.5C 54.5,86.5 52.5,86.5 50.5,86.5C 57.5947,71.976 64.928,57.6427 72.5,43.5 Z"/></g>
<g><path style="opacity:1" fill="#7a10f8" d="M 98.5,55.5 C 98.5,67.8333 98.5,80.1667 98.5,92.5C 96.9582,93.3007 95.2915,93.634 93.5,93.5C 93.8128,97.0419 93.4794,100.375 92.5,103.5C 92.5,89.8333 92.5,76.1667 92.5,62.5C 93.4682,60.3926 93.8016,58.0593 93.5,55.5C 95.1667,55.5 96.8333,55.5 98.5,55.5 Z"/></g>
<g><path style="opacity:0.96" fill="#8e0cf4" d="M 6.5,77.5 C 8.3057,78.0241 9.97237,78.6908 11.5,79.5C 10.6589,91.5616 9.32553,103.562 7.5,115.5C 5.83333,114.167 4.16667,114.167 2.5,115.5C 3.90654,102.841 5.23987,90.1745 6.5,77.5 Z"/></g>
<g><path style="opacity:0.967" fill="#920af4" d="M 43.5,86.5 C 44.983,88.0938 46.483,89.7605 48,91.5C 48.8466,89.8068 49.6799,88.1401 50.5,86.5C 52.5,86.5 54.5,86.5 56.5,86.5C 54.7455,89.915 53.0789,93.415 51.5,97C 55.5817,104.995 59.2484,113.162 62.5,121.5C 60.8333,121.5 59.1667,121.5 57.5,121.5C 54.4656,115.102 51.1323,108.768 47.5,102.5C 40.4795,109.188 33.4795,115.855 26.5,122.5C 24.312,121.377 21.9787,121.377 19.5,122.5C 27.4643,114.035 35.631,105.702 44,97.5C 42.6407,93.8167 40.474,90.4834 37.5,87.5C 39.2646,86.5386 41.2646,86.2053 43.5,86.5 Z"/></g>
<g><path style="opacity:0.84" fill="#a405f2" d="M 98.5,92.5 C 98.5,108.833 98.5,125.167 98.5,141.5C 96.9582,142.301 95.2915,142.634 93.5,142.5C 92.5045,129.677 92.1712,116.677 92.5,103.5C 93.4794,100.375 93.8128,97.0419 93.5,93.5C 95.2915,93.634 96.9582,93.3007 98.5,92.5 Z"/></g>
<g><path style="opacity:0.799" fill="#000000" d="M 607.5,134.5 C 608.833,134.5 610.167,134.5 611.5,134.5C 611.334,140.842 611.5,147.175 612,153.5C 620.838,145.37 629.504,145.704 638,154.5C 642.765,164.584 640.932,173.084 632.5,180C 624.22,183.14 617.054,181.64 611,175.5C 610.505,177.473 610.338,179.473 610.5,181.5C 609.5,181.5 608.5,181.5 607.5,181.5C 607.5,165.833 607.5,150.167 607.5,134.5 Z M 620.5,151.5 C 632.598,151.436 637.765,157.436 636,169.5C 631.657,178.059 625.157,180.225 616.5,176C 611.741,171.509 610.241,166.009 612,159.5C 613.773,155.56 616.606,152.893 620.5,151.5 Z"/></g>
<g><path style="opacity:0.835" fill="#000000" d="M 534.5,136.5 C 535.833,136.5 537.167,136.5 538.5,136.5C 538.5,150.5 538.5,164.5 538.5,178.5C 546.833,178.5 555.167,178.5 563.5,178.5C 563.5,179.5 563.5,180.5 563.5,181.5C 553.833,181.5 544.167,181.5 534.5,181.5C 534.5,166.5 534.5,151.5 534.5,136.5 Z"/></g>
<g><path style="opacity:0.867" fill="#b800f0" d="M 7.5,115.5 C 6.6652,122.168 6.1652,128.835 6,135.5C 10.3688,130.963 14.8688,126.63 19.5,122.5C 21.9787,121.377 24.312,121.377 26.5,122.5C 19.665,129.49 13.165,136.49 7,143.5C 33.916,159.374 60.7493,175.374 87.5,191.5C 87.8333,191.167 88.1667,190.833 88.5,190.5C 77.8804,167.597 67.5471,144.597 57.5,121.5C 59.1667,121.5 60.8333,121.5 62.5,121.5C 72.285,142.409 82.1183,163.409 92,184.5C 92.2008,170.456 92.7008,156.456 93.5,142.5C 95.2915,142.634 96.9582,142.301 98.5,141.5C 98.8207,161.576 98.4874,181.576 97.5,201.5C 75.8333,201.5 54.1667,201.5 32.5,201.5C 21.737,182.965 10.737,164.632 -0.5,146.5C -0.5,142.5 -0.5,138.5 -0.5,134.5C 0.710699,128.32 1.7107,121.986 2.5,115.5C 4.16667,114.167 5.83333,114.167 7.5,115.5 Z M 10.5,152.5 C 35.276,166.725 59.9427,181.225 84.5,196C 68.1667,196.667 51.8333,196.667 35.5,196C 27.0167,181.527 18.6834,167.027 10.5,152.5 Z"/></g>
<g><path style="opacity:0.782" fill="#000000" d="M 578.5,147.5 C 585.205,146.67 590.372,149.004 594,154.5C 594.5,163.494 594.666,172.494 594.5,181.5C 593.5,181.5 592.5,181.5 591.5,181.5C 591.657,180.127 591.49,178.793 591,177.5C 589.421,179.041 587.587,180.208 585.5,181C 581.5,181.667 577.5,181.667 573.5,181C 567.533,177.608 566.033,172.774 569,166.5C 569.903,165.299 571.069,164.465 572.5,164C 578.407,162.639 584.407,162.139 590.5,162.5C 590.894,153.407 586.561,149.907 577.5,152C 574.888,152.639 572.554,153.806 570.5,155.5C 567.86,153.378 568.194,151.544 571.5,150C 574.004,149.302 576.337,148.469 578.5,147.5 Z M 577.5,165.5 C 581.833,165.5 586.167,165.5 590.5,165.5C 590.368,177.348 584.701,181.015 573.5,176.5C 570.116,171.066 571.449,167.4 577.5,165.5 Z"/></g>
<g><path style="opacity:0.759" fill="#000000" d="M 671.5,168.5 C 671.5,171.167 671.5,173.833 671.5,176.5C 668.221,180.631 663.887,182.297 658.5,181.5C 653.11,182.092 648.444,180.592 644.5,177C 645.333,176.167 646.167,175.333 647,174.5C 653.555,179.243 660.221,179.576 667,175.5C 667.896,172.975 667.396,170.808 665.5,169C 660.915,167.415 656.248,166.082 651.5,165C 646.776,162.565 645.276,158.731 647,153.5C 647.833,151.333 649.333,149.833 651.5,149C 658.364,146.624 664.697,147.458 670.5,151.5C 670,152.5 669.5,153.5 669,154.5C 662.904,150.629 656.904,150.629 651,154.5C 650.104,157.025 650.604,159.192 652.5,161C 657.085,162.585 661.752,163.918 666.5,165C 668.323,165.997 669.99,167.164 671.5,168.5 Z"/></g>
<g><path style="opacity:0.801" fill="#b900ef" d="M 262.5,158.5 C 344.167,158.5 425.833,158.5 507.5,158.5C 507.5,160.833 507.5,163.167 507.5,165.5C 425.833,165.5 344.167,165.5 262.5,165.5C 262.5,163.167 262.5,160.833 262.5,158.5 Z"/></g>
</svg>
