<?xml version="1.0" standalone="no"?>
<!DOCTYPE svg PUBLIC "-//W3C//DTD SVG 20010904//EN"
 "http://www.w3.org/TR/2001/REC-SVG-20010904/DTD/svg10.dtd">
<svg version="1.0" xmlns="http://www.w3.org/2000/svg"
 width="504.000000pt" height="151.000000pt" viewBox="0 0 504.000000 151.000000"
 preserveAspectRatio="xMidYMid meet">

<g transform="translate(0.000000,151.000000) scale(0.100000,-0.100000)"
fill="#000000" stroke="none">
<path d="M405 1315 c-170 -106 -313 -199 -317 -207 -4 -7 -25 -163 -46 -347
l-39 -333 125 -214 126 -214 240 2 241 3 0 749 c0 491 -3 750 -10 752 -5 1
-149 -85 -320 -191z m122 -181 c-84 -170 -156 -311 -161 -312 -4 -2 -61 60
-127 139 l-118 142 177 110 c97 60 222 137 277 172 55 34 101 61 103 60 1 -1
-66 -141 -151 -311z m183 -374 c0 -433 -3 -660 -10 -660 -5 0 -10 4 -10 9 0 9
-74 173 -229 510 -39 85 -71 158 -71 162 0 9 312 639 317 639 2 0 3 -297 3
-660z m-474 159 l113 -134 -152 -153 c-84 -84 -153 -146 -155 -139 -1 7 11
121 27 253 17 131 31 256 33 277 1 20 6 36 12 34 5 -2 60 -64 122 -138z m273
-474 c76 -165 147 -320 159 -343 15 -31 17 -42 7 -38 -21 7 -608 356 -620 367
-10 10 293 321 308 316 4 -1 70 -137 146 -302z m-193 -207 c131 -78 264 -156
294 -172 l55 -31 -194 -3 c-107 -1 -198 1 -202 5 -9 9 -199 333 -199 339 0 8
11 2 246 -138z"/>
<path d="M3050 1172 c-47 -38 -14 -112 49 -112 43 0 71 26 71 65 0 58 -71 86
-120 47z"/>
<path d="M4380 868 c-62 -139 -115 -259 -117 -265 -4 -10 11 -13 56 -13 l61 0
25 55 24 55 126 0 125 0 25 -55 24 -55 60 0 c34 0 61 2 61 5 0 4 -177 403
-220 498 -12 25 -17 27 -75 27 l-62 0 -113 -252z m219 33 c22 -55 41 -102 41
-105 0 -3 -38 -6 -85 -6 -47 0 -85 3 -85 6 0 3 15 42 33 87 19 45 37 90 40
100 4 9 8 17 10 17 3 0 23 -45 46 -99z"/>
<path d="M4920 855 l0 -265 60 0 60 0 0 265 0 265 -60 0 -60 0 0 -265z"/>
<path d="M1980 293 c0 -17 50 -18 910 -18 860 0 910 1 910 18 0 16 -50 17
-910 17 -860 0 -910 -1 -910 -17z"/>
</g>
</svg>
